HIERARCHY
ROOT hip
{
	OFFSET 0.000000 0.000000 0.000000 
	CHANNELS 6 Xposition Yposition Zposition Xrotation Zrotation Yrotation
	JOINT abdomen
	{
		OFFSET 0.000000 3.402643 0.000000 
		CHANNELS 3 Xrotation Zrotation Yrotation
		JOINT chest
		{
			OFFSET 0.000000 8.438565 -0.680529 
			CHANNELS 3 Xrotation Zrotation Yrotation
			JOINT neck
			{
				OFFSET 0.000000 10.207942 -0.272212 
				CHANNELS 3 Xrotation Zrotation Yrotation
				JOINT head
				{
					OFFSET 0.000000 3.130431 0.000000 
					CHANNELS 3 Xrotation Zrotation Yrotation
					End Site
					{
						OFFSET 0.000000 3.130435 0.000000 
					}
				}
			}
			JOINT lCollar
			{
				OFFSET 3.470700 6.669187 -0.816635 
				CHANNELS 3 Yrotation Zrotation Xrotation
				JOINT lShldr
				{
					OFFSET 3.198488 0.000000 0.000000 
					CHANNELS 3 Zrotation Yrotation Xrotation
					JOINT lForeArm
					{
						OFFSET 10.139888 0.000000 0.000000 
						CHANNELS 3 Yrotation Zrotation Xrotation
						JOINT lHand
						{
							OFFSET 8.370511 0.000000 0.000000 
							CHANNELS 3 Zrotation Yrotation Xrotation
							End Site
							{
								OFFSET 4.083176 0.000000 0.000000 
							}
						}
					}
				}
			}
			JOINT rCollar
			{
				OFFSET -3.470700 6.669187 -0.816635 
				CHANNELS 3 Yrotation Zrotation Xrotation
				JOINT rShldr
				{
					OFFSET -3.198488 0.000000 0.000000 
					CHANNELS 3 Zrotation Yrotation Xrotation
					JOINT rForeArm
					{
						OFFSET -10.139888 0.000000 0.000000 
						CHANNELS 3 Yrotation Zrotation Xrotation
						JOINT rHand
						{
							OFFSET -8.370511 0.000000 0.000000 
							CHANNELS 3 Zrotation Yrotation Xrotation
							End Site
							{
								OFFSET -4.083176 0.000000 0.000000 
							}
						}
					}
				}
			}
		}
	}
	JOINT lThigh
	{
		OFFSET 5.308129 -1.633274 1.361059 
		CHANNELS 3 Xrotation Zrotation Yrotation
		JOINT lShin
		{
			OFFSET -2.041588 -20.007561 0.000000 
			CHANNELS 3 Xrotation Zrotation Yrotation
			JOINT lFoot
			{
				OFFSET 0.000000 -19.190928 -1.224953 
				CHANNELS 3 Xrotation Yrotation Zrotation
				End Site
				{
					OFFSET 0.000000 -2.449906 4.627600 
				}
			}
		}
	}
	JOINT rThigh
	{
		OFFSET -5.308129 -1.633274 1.361059 
		CHANNELS 3 Xrotation Zrotation Yrotation
		JOINT rShin
		{
			OFFSET 2.041588 -20.007561 0.000000 
			CHANNELS 3 Xrotation Zrotation Yrotation
			JOINT rFoot
			{
				OFFSET 0.000000 -19.190928 -1.224953 
				CHANNELS 3 Xrotation Yrotation Zrotation
				End Site
				{
					OFFSET 0.000000 -2.449906 4.627600 
				}
			}
		}
	}
}
MOTION
Frames: 13
Frame Time: 0.033333
-0.103258 44.092041 0.230191 16.507156 -2.993805 -3.051383 0.000000 0.000000 0.000000 -6.606430 2.403499 7.066999 16.367174 6.630680 0.422751 -13.853792 -4.558505 -21.046778 -17.840878 14.619463 24.992113 -88.148483 -15.289743 -2.541224 -30.411282 0.204187 62.409809 -11.810520 -3.738589 -58.679398 -5.030948 -14.798127 23.160271 65.422028 18.236542 66.177521 39.745472 -17.050800 18.155111 33.038750 -9.743307 -80.238899 -31.679937 10.801355 17.578890 68.565353 13.958603 0.238282 -34.210907 -5.091417 -17.133469 -33.299999 -2.275242 1.794207 62.282864 -2.742870 4.199615 -21.650824 -1.532746 13.900184 
-0.140635 45.561394 0.362992 18.151299 -2.848428 -2.689020 0.000000 0.000000 0.000000 -9.615616 2.606687 7.126837 19.303940 2.958976 0.137041 -12.896242 -3.686205 -12.761582 -16.207117 13.121100 24.990822 -86.431305 -13.293304 -3.435071 -32.180538 -1.382628 66.978867 -12.951777 -4.262534 -58.299747 -4.669909 -14.718523 23.267551 64.782700 17.418810 65.964256 40.562683 -16.836639 19.762484 33.854771 -9.825891 -80.282700 -29.799225 10.415918 17.778879 61.147236 12.699866 0.196377 -26.920746 -8.089839 -14.861665 -31.128195 -2.577625 1.556323 54.857567 -2.536890 3.532442 -14.628427 0.610028 13.025052 
-0.102737 47.182281 0.384793 20.557093 -2.449913 -1.838016 0.000000 0.000000 0.000000 -13.176009 2.500360 7.077179 21.749632 -0.664061 -0.136823 -12.094358 -4.096679 -4.846719 -15.291687 11.947577 24.994730 -85.130775 -11.678730 -4.144165 -34.046490 -2.910085 71.124397 -13.743904 -5.017501 -57.865875 -4.706827 -14.548101 23.282461 63.655846 16.626865 65.471687 41.894173 -17.003674 22.436142 34.800003 -9.450550 -80.341988 -29.108696 9.197430 17.518217 53.009033 11.538915 0.269323 -18.057159 -11.234074 -11.704335 -29.734638 -3.778836 1.155805 46.599014 -1.764869 2.898621 -6.499632 3.321659 10.211252 
-0.174234 49.181549 0.322615 22.761217 -2.879866 -1.505932 0.000000 0.000000 0.000000 -15.958105 3.235991 7.208882 23.138071 -5.751718 -0.520844 -12.176992 -3.405515 6.534492 -14.645941 10.672950 24.989689 -83.628662 -9.957253 -4.958319 -35.988682 -4.229160 73.989334 -13.257002 -5.602851 -57.643055 -3.998940 -14.099092 23.508385 62.211605 16.279198 64.709656 42.867867 -17.761116 24.672930 35.320534 -8.391828 -80.339325 -28.631487 9.598627 17.706196 44.607632 9.984902 0.315696 -8.141322 -15.112091 -10.007960 -28.393564 -3.866685 1.053978 37.416119 -0.796821 2.225489 2.069937 6.130616 6.780658 
-0.220599 50.856895 0.218247 24.669088 -3.016988 -1.134840 0.000000 0.000000 0.000000 -18.120331 3.574854 7.241045 23.472527 -10.272322 -0.854245 -12.164329 -2.505066 16.842480 -14.181716 9.565700 24.994553 -82.375626 -8.719213 -5.645046 -37.253319 -5.137542 75.682289 -12.569218 -5.898342 -57.558086 -3.251231 -13.794951 23.737841 61.156818 16.160763 64.134590 43.230064 -18.357742 25.540810 35.533455 -7.614954 -80.328392 -28.791891 9.672467 17.716110 38.373798 8.610156 0.319895 -0.911062 -17.505871 -8.804845 -27.843214 -4.295634 0.903496 30.435160 0.102461 1.761417 8.140793 7.994323 5.205272 
-0.216589 52.019535 0.072828 26.015669 -2.646322 -0.635892 0.000000 0.000000 0.000000 -19.328123 3.255787 7.150383 22.705219 -13.796353 -1.108430 -12.080253 -1.286152 25.573311 -13.957159 8.664398 24.993158 -81.477982 -8.113393 -6.128586 -37.654839 -5.381917 75.908890 -11.634729 -5.887748 -57.664536 -2.518901 -13.770473 23.925930 60.704544 16.418571 63.823692 42.766228 -18.673473 24.605879 35.363171 -7.269130 -80.308655 -29.755306 9.150213 17.379511 35.620075 7.920992 0.328318 1.865044 -18.056120 -9.588090 -28.351461 -5.379559 0.595147 27.255013 0.971882 1.659098 10.122360 8.681446 7.317391 
-0.234998 52.840496 -0.029238 26.151958 -2.499983 -0.215065 0.000000 0.000000 0.000000 -19.160456 3.052564 7.109766 21.369312 -16.499804 -1.316050 -11.631171 -0.162912 33.476715 -13.674417 8.351313 24.990356 -81.194725 -8.095769 -6.279092 -37.481651 -5.150072 75.705986 -11.163769 -6.057069 -57.706615 -2.092853 -14.272154 24.000843 60.927959 16.988659 63.854038 42.104393 -18.768732 23.162386 35.294529 -7.378747 -80.323982 -29.936197 8.902574 17.287811 35.292545 7.711026 0.321623 1.147348 -17.799801 -10.328973 -28.174711 -6.023712 0.410181 26.367970 1.454579 1.661323 9.905351 7.977277 10.795668 
-0.288738 53.532692 -0.101362 25.677252 -2.656242 0.136572 0.000000 0.000000 0.000000 -18.363546 3.091194 7.129792 19.733126 -18.793036 -1.476174 -10.937454 0.882088 41.177959 -13.330061 8.373334 24.994387 -81.267105 -8.336558 -6.235665 -37.124966 -4.650124 75.526230 -11.099538 -6.497142 -57.616982 -1.883435 -15.039219 24.024269 61.390862 17.701324 63.979702 41.650791 -18.758406 21.808912 35.211445 -7.630457 -80.328735 -29.546818 9.088960 17.404160 35.819359 7.613217 0.250308 -0.544853 -17.413754 -10.769031 -27.488768 -6.152007 0.320521 26.219904 1.655754 1.705902 9.339578 6.779516 12.850079 
-0.404365 54.073959 -0.129985 24.394058 -3.349550 0.342354 0.000000 0.000000 0.000000 -16.746984 3.603604 7.280643 17.864838 -20.627239 -1.619587 -10.102842 1.933078 48.738495 -12.822146 8.867648 24.995892 -81.832214 -8.874742 -5.924984 -36.598782 -3.803914 75.524818 -11.750945 -7.389234 -57.323448 -1.966216 -16.209715 23.934155 62.163403 18.569220 64.243668 41.578117 -18.620810 20.764742 35.074940 -8.017669 -80.319153 -28.368734 10.068187 17.908302 37.301914 7.628160 0.184981 -3.158151 -17.092636 -10.660811 -25.991282 -5.379725 0.482427 26.875700 1.420909 1.739241 8.715619 5.040410 11.870420 
-0.466636 54.312756 -0.120289 23.222382 -3.466450 0.812016 0.000000 0.000000 0.000000 -15.463631 3.487437 7.269677 16.856358 -21.515034 -1.682814 -9.811772 2.481286 52.717297 -12.525388 8.856420 24.992855 -81.905304 -9.095316 -5.873763 -36.267696 -3.190123 75.668510 -12.438665 -8.151186 -57.018814 -1.866127 -16.618767 23.931850 62.345074 18.906399 64.286324 41.733883 -18.600527 19.920473 34.643673 -8.138614 -80.259338 -26.994814 10.091790 18.135387 37.921211 7.779543 0.167115 -4.085373 -17.116930 -10.676805 -24.506176 -5.379532 0.404684 27.137609 1.235631 1.721559 8.999616 4.916910 9.001287 
-0.522483 54.412304 -0.123401 22.458448 -3.524470 1.310921 0.000000 0.000000 0.000000 -14.638664 3.303525 7.248999 16.168415 -22.110044 -1.730025 -9.594226 3.002651 55.514969 -12.300763 8.667580 24.996986 -81.814369 -9.199567 -5.925016 -36.035191 -2.669875 75.813652 -13.004703 -8.797771 -56.754108 -1.709029 -16.788570 23.968845 62.356518 19.037733 64.270721 41.872982 -18.590601 18.995598 34.088650 -8.222342 -80.192993 -26.109900 10.055669 18.264683 38.432377 7.985203 0.193307 -4.452014 -17.312876 -10.817832 -23.460781 -5.457472 0.336214 27.350775 1.040200 1.669351 9.593421 5.410315 6.685941 
-0.590687 54.333664 -0.174008 22.534256 -3.777632 1.702603 0.000000 0.000000 0.000000 -14.755182 3.313284 7.239253 15.739718 -22.490503 -1.755524 -9.290915 3.687968 57.421791 -12.140900 8.318257 24.992815 -81.608559 -9.178179 -6.026810 -35.886635 -2.285125 75.846992 -13.268333 -9.188064 -56.623447 -1.511897 -16.735071 24.036839 62.293102 19.033463 64.228149 41.844803 -18.495308 17.708872 33.402287 -8.370803 -80.128662 -26.393057 10.241147 18.274803 39.142044 8.189502 0.180888 -4.273880 -17.716839 -11.147148 -23.459841 -5.321029 0.423524 27.574078 0.761614 1.607807 10.367876 6.546684 6.910090 
-0.663339 53.968655 -0.240879 22.517155 -3.951901 2.300231 0.000000 0.000000 0.000000 -14.814352 3.168172 7.208875 15.577114 -22.763697 -1.772076 -9.478293 3.979058 58.338879 -12.051464 7.389119 24.992464 -80.838348 -8.991021 -6.439032 -35.673351 -2.085646 75.429230 -13.031094 -9.272476 -56.697201 -1.119091 -16.144871 24.185389 61.891876 18.910213 64.023766 41.421844 -18.361078 16.051573 32.825443 -8.632460 -80.069107 -26.628569 10.193647 18.227339 39.906929 8.535155 0.221563 -3.653688 -18.209513 -11.121222 -23.232670 -5.368988 0.358831 27.765858 0.327262 1.547182 11.382068 7.954433 9.817369 
